<?xml version="1.0" standalone="no"?><!-- Generator: Gravit.io --><svg xmlns="http://www.w3.org/2000/svg" xmlns:xlink="http://www.w3.org/1999/xlink" style="isolation:isolate" viewBox="0 0 425.721 264.711" width="425.721" height="264.711"><defs><clipPath id="_clipPath_5dfm6ErbmvqcDnRsThOY6M6tH4s7TtpE"><rect width="425.721" height="264.711"/></clipPath></defs><g clip-path="url(#_clipPath_5dfm6ErbmvqcDnRsThOY6M6tH4s7TtpE)"><rect width="425.721" height="264.711" style="fill:rgb(0,0,0)"/><rect x="0" y="0" width="425.721" height="264.711" transform="matrix(1,0,0,1,0,0)" fill="rgb(0,0,0)"/><g id="Group"><path d=" M 23.773 38.986 C 23.773 25.941 34.364 15.351 47.409 15.351 C 60.454 15.351 71.045 25.941 71.045 38.986 C 71.045 52.031 60.454 62.622 47.409 62.622 C 34.364 62.622 23.773 52.031 23.773 38.986 Z " fill="rgb(209,209,209)"/><path d=" M 23.773 101.687 C 23.773 88.642 34.364 78.051 47.409 78.051 C 60.454 78.051 71.045 88.642 71.045 101.687 C 71.045 114.732 60.454 125.323 47.409 125.323 C 34.364 125.323 23.773 114.732 23.773 101.687 Z " fill="rgb(209,209,209)"/><path d=" M 23.773 164.388 C 23.773 151.343 34.364 140.752 47.409 140.752 C 60.454 140.752 71.045 151.343 71.045 164.388 C 71.045 177.433 60.454 188.024 47.409 188.024 C 34.364 188.024 23.773 177.433 23.773 164.388 Z " fill="rgb(209,209,209)"/><path d=" M 23.773 227.089 C 23.773 214.044 34.364 203.453 47.409 203.453 C 60.454 203.453 71.045 214.044 71.045 227.089 C 71.045 240.134 60.454 250.725 47.409 250.725 C 34.364 250.725 23.773 240.134 23.773 227.089 Z " fill="rgb(209,209,209)"/><path d=" M 89.954 38.986 C 89.954 25.941 100.544 15.351 113.589 15.351 C 126.634 15.351 137.225 25.941 137.225 38.986 C 137.225 52.031 126.634 62.622 113.589 62.622 C 100.544 62.622 89.954 52.031 89.954 38.986 Z " fill="rgb(209,209,209)"/><path d=" M 156.134 38.986 C 156.134 25.941 166.725 15.351 179.77 15.351 C 192.815 15.351 203.406 25.941 203.406 38.986 C 203.406 52.031 192.815 62.622 179.77 62.622 C 166.725 62.622 156.134 52.031 156.134 38.986 Z " fill="rgb(209,209,209)"/><path d=" M 222.315 38.986 C 222.315 25.941 232.906 15.351 245.951 15.351 C 258.996 15.351 269.587 25.941 269.587 38.986 C 269.587 52.031 258.996 62.622 245.951 62.622 C 232.906 62.622 222.315 52.031 222.315 38.986 Z " fill="rgb(209,209,209)"/><path d=" M 288.495 38.986 C 288.495 25.941 299.086 15.351 312.131 15.351 C 325.176 15.351 335.767 25.941 335.767 38.986 C 335.767 52.031 325.176 62.622 312.131 62.622 C 299.086 62.622 288.495 52.031 288.495 38.986 Z " fill="rgb(209,209,209)"/><path d=" M 354.676 37.622 C 354.676 24.577 365.267 13.986 378.312 13.986 C 391.357 13.986 401.948 24.577 401.948 37.622 C 401.948 50.667 391.357 61.258 378.312 61.258 C 365.267 61.258 354.676 50.667 354.676 37.622 Z " fill="rgb(209,209,209)"/><path d=" M 89.954 101.687 C 89.954 88.642 100.544 78.051 113.589 78.051 C 126.634 78.051 137.225 88.642 137.225 101.687 C 137.225 114.732 126.634 125.323 113.589 125.323 C 100.544 125.323 89.954 114.732 89.954 101.687 Z " fill="rgb(209,209,209)"/><path d=" M 156.134 101.687 C 156.134 88.642 166.725 78.051 179.77 78.051 C 192.815 78.051 203.406 88.642 203.406 101.687 C 203.406 114.732 192.815 125.323 179.77 125.323 C 166.725 125.323 156.134 114.732 156.134 101.687 Z " fill="rgb(209,209,209)"/><path d=" M 222.315 101.687 C 222.315 88.642 232.906 78.051 245.951 78.051 C 258.996 78.051 269.587 88.642 269.587 101.687 C 269.587 114.732 258.996 125.323 245.951 125.323 C 232.906 125.323 222.315 114.732 222.315 101.687 Z " fill="rgb(209,209,209)"/><path d=" M 288.495 101.687 C 288.495 88.642 299.086 78.051 312.131 78.051 C 325.176 78.051 335.767 88.642 335.767 101.687 C 335.767 114.732 325.176 125.323 312.131 125.323 C 299.086 125.323 288.495 114.732 288.495 101.687 Z " fill="rgb(209,209,209)"/><path d=" M 354.676 101.687 C 354.676 88.642 365.267 78.051 378.312 78.051 C 391.357 78.051 401.948 88.642 401.948 101.687 C 401.948 114.732 391.357 125.323 378.312 125.323 C 365.267 125.323 354.676 114.732 354.676 101.687 Z " fill="rgb(209,209,209)"/><path d=" M 89.954 164.388 C 89.954 151.343 100.544 140.752 113.589 140.752 C 126.634 140.752 137.225 151.343 137.225 164.388 C 137.225 177.433 126.634 188.024 113.589 188.024 C 100.544 188.024 89.954 177.433 89.954 164.388 Z " fill="rgb(209,209,209)"/><path d=" M 156.134 164.388 C 156.134 151.343 166.725 140.752 179.77 140.752 C 192.815 140.752 203.406 151.343 203.406 164.388 C 203.406 177.433 192.815 188.024 179.77 188.024 C 166.725 188.024 156.134 177.433 156.134 164.388 Z " fill="rgb(209,209,209)"/><path d=" M 222.315 164.388 C 222.315 151.343 232.906 140.752 245.951 140.752 C 258.996 140.752 269.587 151.343 269.587 164.388 C 269.587 177.433 258.996 188.024 245.951 188.024 C 232.906 188.024 222.315 177.433 222.315 164.388 Z " fill="rgb(209,209,209)"/><path d=" M 288.495 164.388 C 288.495 151.343 299.086 140.752 312.131 140.752 C 325.176 140.752 335.767 151.343 335.767 164.388 C 335.767 177.433 325.176 188.024 312.131 188.024 C 299.086 188.024 288.495 177.433 288.495 164.388 Z " fill="rgb(209,209,209)"/><path d=" M 354.676 164.388 C 354.676 151.343 365.267 140.752 378.312 140.752 C 391.357 140.752 401.948 151.343 401.948 164.388 C 401.948 177.433 391.357 188.024 378.312 188.024 C 365.267 188.024 354.676 177.433 354.676 164.388 Z " fill="rgb(209,209,209)"/><path d=" M 89.954 227.089 C 89.954 214.044 100.544 203.453 113.589 203.453 C 126.634 203.453 137.225 214.044 137.225 227.089 C 137.225 240.134 126.634 250.725 113.589 250.725 C 100.544 250.725 89.954 240.134 89.954 227.089 Z " fill="rgb(209,209,209)"/><path d=" M 156.134 227.089 C 156.134 214.044 166.725 203.453 179.77 203.453 C 192.815 203.453 203.406 214.044 203.406 227.089 C 203.406 240.134 192.815 250.725 179.77 250.725 C 166.725 250.725 156.134 240.134 156.134 227.089 Z " fill="rgb(209,209,209)"/><path d=" M 222.315 227.089 C 222.315 214.044 232.906 203.453 245.951 203.453 C 258.996 203.453 269.587 214.044 269.587 227.089 C 269.587 240.134 258.996 250.725 245.951 250.725 C 232.906 250.725 222.315 240.134 222.315 227.089 Z " fill="rgb(209,209,209)"/><path d=" M 288.495 227.089 C 288.495 214.044 299.086 203.453 312.131 203.453 C 325.176 203.453 335.767 214.044 335.767 227.089 C 335.767 240.134 325.176 250.725 312.131 250.725 C 299.086 250.725 288.495 240.134 288.495 227.089 Z " fill="rgb(209,209,209)"/><path d=" M 354.676 227.089 C 354.676 214.044 365.267 203.453 378.312 203.453 C 391.357 203.453 401.948 214.044 401.948 227.089 C 401.948 240.134 391.357 250.725 378.312 250.725 C 365.267 250.725 354.676 240.134 354.676 227.089 Z " fill="rgb(209,209,209)"/></g></g></svg>