<?xml version="1.0" standalone="no"?><!-- Generator: Gravit.io --><svg xmlns="http://www.w3.org/2000/svg" xmlns:xlink="http://www.w3.org/1999/xlink" style="isolation:isolate" viewBox="0 0 425.721 264.711" width="425.721" height="264.711"><defs><clipPath id="_clipPath_iwXV5UnrsftIKHlqqFSGQRMN7wSRzDXB"><rect width="425.721" height="264.711"/></clipPath></defs><g clip-path="url(#_clipPath_iwXV5UnrsftIKHlqqFSGQRMN7wSRzDXB)"><rect width="425.721" height="264.711" style="fill:rgb(0,0,0)"/><rect x="0" y="0" width="425.721" height="264.711" transform="matrix(1,0,0,1,0,0)" fill="rgb(0,0,0)"/><g id="Group"><g id="Group"><path d=" M 24.9 26.244 C 24.9 19.878 30.068 14.709 36.435 14.709 C 42.801 14.709 47.969 19.878 47.969 26.244 C 47.969 32.61 42.801 37.778 36.435 37.778 C 30.068 37.778 24.9 32.61 24.9 26.244 Z " fill="rgb(209,209,209)"/><path d=" M 24.9 56.842 C 24.9 50.476 30.068 45.308 36.435 45.308 C 42.801 45.308 47.969 50.476 47.969 56.842 C 47.969 63.209 42.801 68.377 36.435 68.377 C 30.068 68.377 24.9 63.209 24.9 56.842 Z " fill="rgb(209,209,209)"/><path d=" M 24.9 87.441 C 24.9 81.075 30.068 75.907 36.435 75.907 C 42.801 75.907 47.969 81.075 47.969 87.441 C 47.969 93.807 42.801 98.976 36.435 98.976 C 30.068 98.976 24.9 93.807 24.9 87.441 Z " fill="rgb(209,209,209)"/><path d=" M 24.9 118.04 C 24.9 111.674 30.068 106.505 36.435 106.505 C 42.801 106.505 47.969 111.674 47.969 118.04 C 47.969 124.406 42.801 129.575 36.435 129.575 C 30.068 129.575 24.9 124.406 24.9 118.04 Z " fill="rgb(209,209,209)"/><path d=" M 57.197 26.244 C 57.197 19.878 62.365 14.709 68.732 14.709 C 75.098 14.709 80.266 19.878 80.266 26.244 C 80.266 32.61 75.098 37.778 68.732 37.778 C 62.365 37.778 57.197 32.61 57.197 26.244 Z " fill="rgb(209,209,209)"/><path d=" M 89.494 26.244 C 89.494 19.878 94.662 14.709 101.028 14.709 C 107.395 14.709 112.563 19.878 112.563 26.244 C 112.563 32.61 107.395 37.778 101.028 37.778 C 94.662 37.778 89.494 32.61 89.494 26.244 Z " fill="rgb(209,209,209)"/><path d=" M 121.791 26.244 C 121.791 19.878 126.959 14.709 133.325 14.709 C 139.692 14.709 144.86 19.878 144.86 26.244 C 144.86 32.61 139.692 37.778 133.325 37.778 C 126.959 37.778 121.791 32.61 121.791 26.244 Z " fill="rgb(209,209,209)"/><path d=" M 154.088 26.244 C 154.088 19.878 159.256 14.709 165.622 14.709 C 171.989 14.709 177.157 19.878 177.157 26.244 C 177.157 32.61 171.989 37.778 165.622 37.778 C 159.256 37.778 154.088 32.61 154.088 26.244 Z " fill="rgb(209,209,209)"/><path d=" M 186.385 25.578 C 186.385 19.212 191.553 14.043 197.919 14.043 C 204.285 14.043 209.454 19.212 209.454 25.578 C 209.454 31.944 204.285 37.112 197.919 37.112 C 191.553 37.112 186.385 31.944 186.385 25.578 Z " fill="rgb(209,209,209)"/><path d=" M 57.197 56.842 C 57.197 50.476 62.365 45.308 68.732 45.308 C 75.098 45.308 80.266 50.476 80.266 56.842 C 80.266 63.209 75.098 68.377 68.732 68.377 C 62.365 68.377 57.197 63.209 57.197 56.842 Z " fill="rgb(209,209,209)"/><path d=" M 89.494 56.842 C 89.494 50.476 94.662 45.308 101.028 45.308 C 107.395 45.308 112.563 50.476 112.563 56.842 C 112.563 63.209 107.395 68.377 101.028 68.377 C 94.662 68.377 89.494 63.209 89.494 56.842 Z " fill="rgb(209,209,209)"/><path d=" M 121.791 56.842 C 121.791 50.476 126.959 45.308 133.325 45.308 C 139.692 45.308 144.86 50.476 144.86 56.842 C 144.86 63.209 139.692 68.377 133.325 68.377 C 126.959 68.377 121.791 63.209 121.791 56.842 Z " fill="rgb(209,209,209)"/><path d=" M 154.088 56.842 C 154.088 50.476 159.256 45.308 165.622 45.308 C 171.989 45.308 177.157 50.476 177.157 56.842 C 177.157 63.209 171.989 68.377 165.622 68.377 C 159.256 68.377 154.088 63.209 154.088 56.842 Z " fill="rgb(209,209,209)"/><path d=" M 186.385 56.842 C 186.385 50.476 191.553 45.308 197.919 45.308 C 204.285 45.308 209.454 50.476 209.454 56.842 C 209.454 63.209 204.285 68.377 197.919 68.377 C 191.553 68.377 186.385 63.209 186.385 56.842 Z " fill="rgb(209,209,209)"/><path d=" M 57.197 87.441 C 57.197 81.075 62.365 75.907 68.732 75.907 C 75.098 75.907 80.266 81.075 80.266 87.441 C 80.266 93.807 75.098 98.976 68.732 98.976 C 62.365 98.976 57.197 93.807 57.197 87.441 Z " fill="rgb(209,209,209)"/><path d=" M 89.494 87.441 C 89.494 81.075 94.662 75.907 101.028 75.907 C 107.395 75.907 112.563 81.075 112.563 87.441 C 112.563 93.807 107.395 98.976 101.028 98.976 C 94.662 98.976 89.494 93.807 89.494 87.441 Z " fill="rgb(209,209,209)"/><path d=" M 121.791 87.441 C 121.791 81.075 126.959 75.907 133.325 75.907 C 139.692 75.907 144.86 81.075 144.86 87.441 C 144.86 93.807 139.692 98.976 133.325 98.976 C 126.959 98.976 121.791 93.807 121.791 87.441 Z " fill="rgb(209,209,209)"/><path d=" M 154.088 87.441 C 154.088 81.075 159.256 75.907 165.622 75.907 C 171.989 75.907 177.157 81.075 177.157 87.441 C 177.157 93.807 171.989 98.976 165.622 98.976 C 159.256 98.976 154.088 93.807 154.088 87.441 Z " fill="rgb(209,209,209)"/><path d=" M 186.385 87.441 C 186.385 81.075 191.553 75.907 197.919 75.907 C 204.285 75.907 209.454 81.075 209.454 87.441 C 209.454 93.807 204.285 98.976 197.919 98.976 C 191.553 98.976 186.385 93.807 186.385 87.441 Z " fill="rgb(209,209,209)"/><path d=" M 57.197 118.04 C 57.197 111.674 62.365 106.505 68.732 106.505 C 75.098 106.505 80.266 111.674 80.266 118.04 C 80.266 124.406 75.098 129.575 68.732 129.575 C 62.365 129.575 57.197 124.406 57.197 118.04 Z " fill="rgb(209,209,209)"/><path d=" M 89.494 118.04 C 89.494 111.674 94.662 106.505 101.028 106.505 C 107.395 106.505 112.563 111.674 112.563 118.04 C 112.563 124.406 107.395 129.575 101.028 129.575 C 94.662 129.575 89.494 124.406 89.494 118.04 Z " fill="rgb(209,209,209)"/><path d=" M 121.791 118.04 C 121.791 111.674 126.959 106.505 133.325 106.505 C 139.692 106.505 144.86 111.674 144.86 118.04 C 144.86 124.406 139.692 129.575 133.325 129.575 C 126.959 129.575 121.791 124.406 121.791 118.04 Z " fill="rgb(209,209,209)"/><path d=" M 154.088 118.04 C 154.088 111.674 159.256 106.505 165.622 106.505 C 171.989 106.505 177.157 111.674 177.157 118.04 C 177.157 124.406 171.989 129.575 165.622 129.575 C 159.256 129.575 154.088 124.406 154.088 118.04 Z " fill="rgb(209,209,209)"/><path d=" M 186.385 118.04 C 186.385 111.674 191.553 106.505 197.919 106.505 C 204.285 106.505 209.454 111.674 209.454 118.04 C 209.454 124.406 204.285 129.575 197.919 129.575 C 191.553 129.575 186.385 124.406 186.385 118.04 Z " fill="rgb(209,209,209)"/></g><g id="Group"><path d=" M 216.267 26.244 C 216.267 19.878 221.435 14.709 227.801 14.709 C 234.167 14.709 239.336 19.878 239.336 26.244 C 239.336 32.61 234.167 37.778 227.801 37.778 C 221.435 37.778 216.267 32.61 216.267 26.244 Z " fill="rgb(209,209,209)"/><path d=" M 216.267 56.842 C 216.267 50.476 221.435 45.308 227.801 45.308 C 234.167 45.308 239.336 50.476 239.336 56.842 C 239.336 63.209 234.167 68.377 227.801 68.377 C 221.435 68.377 216.267 63.209 216.267 56.842 Z " fill="rgb(209,209,209)"/><path d=" M 216.267 87.441 C 216.267 81.075 221.435 75.907 227.801 75.907 C 234.167 75.907 239.336 81.075 239.336 87.441 C 239.336 93.807 234.167 98.976 227.801 98.976 C 221.435 98.976 216.267 93.807 216.267 87.441 Z " fill="rgb(209,209,209)"/><path d=" M 216.267 118.04 C 216.267 111.674 221.435 106.505 227.801 106.505 C 234.167 106.505 239.336 111.674 239.336 118.04 C 239.336 124.406 234.167 129.575 227.801 129.575 C 221.435 129.575 216.267 124.406 216.267 118.04 Z " fill="rgb(209,209,209)"/><path d=" M 248.564 26.244 C 248.564 19.878 253.732 14.709 260.098 14.709 C 266.464 14.709 271.633 19.878 271.633 26.244 C 271.633 32.61 266.464 37.778 260.098 37.778 C 253.732 37.778 248.564 32.61 248.564 26.244 Z " fill="rgb(209,209,209)"/><path d=" M 280.861 26.244 C 280.861 19.878 286.029 14.709 292.395 14.709 C 298.761 14.709 303.93 19.878 303.93 26.244 C 303.93 32.61 298.761 37.778 292.395 37.778 C 286.029 37.778 280.861 32.61 280.861 26.244 Z " fill="rgb(209,209,209)"/><path d=" M 313.157 26.244 C 313.157 19.878 318.326 14.709 324.692 14.709 C 331.058 14.709 336.227 19.878 336.227 26.244 C 336.227 32.61 331.058 37.778 324.692 37.778 C 318.326 37.778 313.157 32.61 313.157 26.244 Z " fill="rgb(209,209,209)"/><path d=" M 345.454 26.244 C 345.454 19.878 350.623 14.709 356.989 14.709 C 363.355 14.709 368.524 19.878 368.524 26.244 C 368.524 32.61 363.355 37.778 356.989 37.778 C 350.623 37.778 345.454 32.61 345.454 26.244 Z " fill="rgb(209,209,209)"/><path d=" M 377.751 25.578 C 377.751 19.212 382.92 14.043 389.286 14.043 C 395.652 14.043 400.821 19.212 400.821 25.578 C 400.821 31.944 395.652 37.112 389.286 37.112 C 382.92 37.112 377.751 31.944 377.751 25.578 Z " fill="rgb(209,209,209)"/><path d=" M 248.564 56.842 C 248.564 50.476 253.732 45.308 260.098 45.308 C 266.464 45.308 271.633 50.476 271.633 56.842 C 271.633 63.209 266.464 68.377 260.098 68.377 C 253.732 68.377 248.564 63.209 248.564 56.842 Z " fill="rgb(209,209,209)"/><path d=" M 280.861 56.842 C 280.861 50.476 286.029 45.308 292.395 45.308 C 298.761 45.308 303.93 50.476 303.93 56.842 C 303.93 63.209 298.761 68.377 292.395 68.377 C 286.029 68.377 280.861 63.209 280.861 56.842 Z " fill="rgb(209,209,209)"/><path d=" M 313.157 56.842 C 313.157 50.476 318.326 45.308 324.692 45.308 C 331.058 45.308 336.227 50.476 336.227 56.842 C 336.227 63.209 331.058 68.377 324.692 68.377 C 318.326 68.377 313.157 63.209 313.157 56.842 Z " fill="rgb(209,209,209)"/><path d=" M 345.454 56.842 C 345.454 50.476 350.623 45.308 356.989 45.308 C 363.355 45.308 368.524 50.476 368.524 56.842 C 368.524 63.209 363.355 68.377 356.989 68.377 C 350.623 68.377 345.454 63.209 345.454 56.842 Z " fill="rgb(209,209,209)"/><path d=" M 377.751 56.842 C 377.751 50.476 382.92 45.308 389.286 45.308 C 395.652 45.308 400.821 50.476 400.821 56.842 C 400.821 63.209 395.652 68.377 389.286 68.377 C 382.92 68.377 377.751 63.209 377.751 56.842 Z " fill="rgb(209,209,209)"/><path d=" M 248.564 87.441 C 248.564 81.075 253.732 75.907 260.098 75.907 C 266.464 75.907 271.633 81.075 271.633 87.441 C 271.633 93.807 266.464 98.976 260.098 98.976 C 253.732 98.976 248.564 93.807 248.564 87.441 Z " fill="rgb(209,209,209)"/><path d=" M 280.861 87.441 C 280.861 81.075 286.029 75.907 292.395 75.907 C 298.761 75.907 303.93 81.075 303.93 87.441 C 303.93 93.807 298.761 98.976 292.395 98.976 C 286.029 98.976 280.861 93.807 280.861 87.441 Z " fill="rgb(209,209,209)"/><path d=" M 313.157 87.441 C 313.157 81.075 318.326 75.907 324.692 75.907 C 331.058 75.907 336.227 81.075 336.227 87.441 C 336.227 93.807 331.058 98.976 324.692 98.976 C 318.326 98.976 313.157 93.807 313.157 87.441 Z " fill="rgb(209,209,209)"/><path d=" M 345.454 87.441 C 345.454 81.075 350.623 75.907 356.989 75.907 C 363.355 75.907 368.524 81.075 368.524 87.441 C 368.524 93.807 363.355 98.976 356.989 98.976 C 350.623 98.976 345.454 93.807 345.454 87.441 Z " fill="rgb(209,209,209)"/><path d=" M 377.751 87.441 C 377.751 81.075 382.92 75.907 389.286 75.907 C 395.652 75.907 400.821 81.075 400.821 87.441 C 400.821 93.807 395.652 98.976 389.286 98.976 C 382.92 98.976 377.751 93.807 377.751 87.441 Z " fill="rgb(209,209,209)"/><path d=" M 248.564 118.04 C 248.564 111.674 253.732 106.505 260.098 106.505 C 266.464 106.505 271.633 111.674 271.633 118.04 C 271.633 124.406 266.464 129.575 260.098 129.575 C 253.732 129.575 248.564 124.406 248.564 118.04 Z " fill="rgb(209,209,209)"/><path d=" M 280.861 118.04 C 280.861 111.674 286.029 106.505 292.395 106.505 C 298.761 106.505 303.93 111.674 303.93 118.04 C 303.93 124.406 298.761 129.575 292.395 129.575 C 286.029 129.575 280.861 124.406 280.861 118.04 Z " fill="rgb(209,209,209)"/><path d=" M 313.157 118.04 C 313.157 111.674 318.326 106.505 324.692 106.505 C 331.058 106.505 336.227 111.674 336.227 118.04 C 336.227 124.406 331.058 129.575 324.692 129.575 C 318.326 129.575 313.157 124.406 313.157 118.04 Z " fill="rgb(209,209,209)"/><path d=" M 345.454 118.04 C 345.454 111.674 350.623 106.505 356.989 106.505 C 363.355 106.505 368.524 111.674 368.524 118.04 C 368.524 124.406 363.355 129.575 356.989 129.575 C 350.623 129.575 345.454 124.406 345.454 118.04 Z " fill="rgb(209,209,209)"/><path d=" M 377.751 118.04 C 377.751 111.674 382.92 106.505 389.286 106.505 C 395.652 106.505 400.821 111.674 400.821 118.04 C 400.821 124.406 395.652 129.575 389.286 129.575 C 382.92 129.575 377.751 124.406 377.751 118.04 Z " fill="rgb(209,209,209)"/></g><g id="Group"><path d=" M 24.9 147.337 C 24.9 140.971 30.068 135.802 36.435 135.802 C 42.801 135.802 47.969 140.971 47.969 147.337 C 47.969 153.703 42.801 158.871 36.435 158.871 C 30.068 158.871 24.9 153.703 24.9 147.337 Z " fill="rgb(209,209,209)"/><path d=" M 24.9 177.935 C 24.9 171.569 30.068 166.401 36.435 166.401 C 42.801 166.401 47.969 171.569 47.969 177.935 C 47.969 184.302 42.801 189.47 36.435 189.47 C 30.068 189.47 24.9 184.302 24.9 177.935 Z " fill="rgb(209,209,209)"/><path d=" M 24.9 208.534 C 24.9 202.168 30.068 197 36.435 197 C 42.801 197 47.969 202.168 47.969 208.534 C 47.969 214.9 42.801 220.069 36.435 220.069 C 30.068 220.069 24.9 214.9 24.9 208.534 Z " fill="rgb(209,209,209)"/><path d=" M 24.9 239.133 C 24.9 232.767 30.068 227.598 36.435 227.598 C 42.801 227.598 47.969 232.767 47.969 239.133 C 47.969 245.499 42.801 250.668 36.435 250.668 C 30.068 250.668 24.9 245.499 24.9 239.133 Z " fill="rgb(209,209,209)"/><path d=" M 57.197 147.337 C 57.197 140.971 62.365 135.802 68.732 135.802 C 75.098 135.802 80.266 140.971 80.266 147.337 C 80.266 153.703 75.098 158.871 68.732 158.871 C 62.365 158.871 57.197 153.703 57.197 147.337 Z " fill="rgb(209,209,209)"/><path d=" M 89.494 147.337 C 89.494 140.971 94.662 135.802 101.028 135.802 C 107.395 135.802 112.563 140.971 112.563 147.337 C 112.563 153.703 107.395 158.871 101.028 158.871 C 94.662 158.871 89.494 153.703 89.494 147.337 Z " fill="rgb(209,209,209)"/><path d=" M 121.791 147.337 C 121.791 140.971 126.959 135.802 133.325 135.802 C 139.692 135.802 144.86 140.971 144.86 147.337 C 144.86 153.703 139.692 158.871 133.325 158.871 C 126.959 158.871 121.791 153.703 121.791 147.337 Z " fill="rgb(209,209,209)"/><path d=" M 154.088 147.337 C 154.088 140.971 159.256 135.802 165.622 135.802 C 171.989 135.802 177.157 140.971 177.157 147.337 C 177.157 153.703 171.989 158.871 165.622 158.871 C 159.256 158.871 154.088 153.703 154.088 147.337 Z " fill="rgb(209,209,209)"/><path d=" M 186.385 146.671 C 186.385 140.305 191.553 135.136 197.919 135.136 C 204.285 135.136 209.454 140.305 209.454 146.671 C 209.454 153.037 204.285 158.205 197.919 158.205 C 191.553 158.205 186.385 153.037 186.385 146.671 Z " fill="rgb(209,209,209)"/><path d=" M 57.197 177.935 C 57.197 171.569 62.365 166.401 68.732 166.401 C 75.098 166.401 80.266 171.569 80.266 177.935 C 80.266 184.302 75.098 189.47 68.732 189.47 C 62.365 189.47 57.197 184.302 57.197 177.935 Z " fill="rgb(209,209,209)"/><path d=" M 89.494 177.935 C 89.494 171.569 94.662 166.401 101.028 166.401 C 107.395 166.401 112.563 171.569 112.563 177.935 C 112.563 184.302 107.395 189.47 101.028 189.47 C 94.662 189.47 89.494 184.302 89.494 177.935 Z " fill="rgb(209,209,209)"/><path d=" M 121.791 177.935 C 121.791 171.569 126.959 166.401 133.325 166.401 C 139.692 166.401 144.86 171.569 144.86 177.935 C 144.86 184.302 139.692 189.47 133.325 189.47 C 126.959 189.47 121.791 184.302 121.791 177.935 Z " fill="rgb(209,209,209)"/><path d=" M 154.088 177.935 C 154.088 171.569 159.256 166.401 165.622 166.401 C 171.989 166.401 177.157 171.569 177.157 177.935 C 177.157 184.302 171.989 189.47 165.622 189.47 C 159.256 189.47 154.088 184.302 154.088 177.935 Z " fill="rgb(209,209,209)"/><path d=" M 186.385 177.935 C 186.385 171.569 191.553 166.401 197.919 166.401 C 204.285 166.401 209.454 171.569 209.454 177.935 C 209.454 184.302 204.285 189.47 197.919 189.47 C 191.553 189.47 186.385 184.302 186.385 177.935 Z " fill="rgb(209,209,209)"/><path d=" M 57.197 208.534 C 57.197 202.168 62.365 197 68.732 197 C 75.098 197 80.266 202.168 80.266 208.534 C 80.266 214.9 75.098 220.069 68.732 220.069 C 62.365 220.069 57.197 214.9 57.197 208.534 Z " fill="rgb(209,209,209)"/><path d=" M 89.494 208.534 C 89.494 202.168 94.662 197 101.028 197 C 107.395 197 112.563 202.168 112.563 208.534 C 112.563 214.9 107.395 220.069 101.028 220.069 C 94.662 220.069 89.494 214.9 89.494 208.534 Z " fill="rgb(209,209,209)"/><path d=" M 121.791 208.534 C 121.791 202.168 126.959 197 133.325 197 C 139.692 197 144.86 202.168 144.86 208.534 C 144.86 214.9 139.692 220.069 133.325 220.069 C 126.959 220.069 121.791 214.9 121.791 208.534 Z " fill="rgb(209,209,209)"/><path d=" M 154.088 208.534 C 154.088 202.168 159.256 197 165.622 197 C 171.989 197 177.157 202.168 177.157 208.534 C 177.157 214.9 171.989 220.069 165.622 220.069 C 159.256 220.069 154.088 214.9 154.088 208.534 Z " fill="rgb(209,209,209)"/><path d=" M 186.385 208.534 C 186.385 202.168 191.553 197 197.919 197 C 204.285 197 209.454 202.168 209.454 208.534 C 209.454 214.9 204.285 220.069 197.919 220.069 C 191.553 220.069 186.385 214.9 186.385 208.534 Z " fill="rgb(209,209,209)"/><path d=" M 57.197 239.133 C 57.197 232.767 62.365 227.598 68.732 227.598 C 75.098 227.598 80.266 232.767 80.266 239.133 C 80.266 245.499 75.098 250.668 68.732 250.668 C 62.365 250.668 57.197 245.499 57.197 239.133 Z " fill="rgb(209,209,209)"/><path d=" M 89.494 239.133 C 89.494 232.767 94.662 227.598 101.028 227.598 C 107.395 227.598 112.563 232.767 112.563 239.133 C 112.563 245.499 107.395 250.668 101.028 250.668 C 94.662 250.668 89.494 245.499 89.494 239.133 Z " fill="rgb(209,209,209)"/><path d=" M 121.791 239.133 C 121.791 232.767 126.959 227.598 133.325 227.598 C 139.692 227.598 144.86 232.767 144.86 239.133 C 144.86 245.499 139.692 250.668 133.325 250.668 C 126.959 250.668 121.791 245.499 121.791 239.133 Z " fill="rgb(209,209,209)"/><path d=" M 154.088 239.133 C 154.088 232.767 159.256 227.598 165.622 227.598 C 171.989 227.598 177.157 232.767 177.157 239.133 C 177.157 245.499 171.989 250.668 165.622 250.668 C 159.256 250.668 154.088 245.499 154.088 239.133 Z " fill="rgb(209,209,209)"/><path d=" M 186.385 239.133 C 186.385 232.767 191.553 227.598 197.919 227.598 C 204.285 227.598 209.454 232.767 209.454 239.133 C 209.454 245.499 204.285 250.668 197.919 250.668 C 191.553 250.668 186.385 245.499 186.385 239.133 Z " fill="rgb(209,209,209)"/></g><g id="Group"><path d=" M 216.267 147.337 C 216.267 140.971 221.435 135.802 227.801 135.802 C 234.167 135.802 239.336 140.971 239.336 147.337 C 239.336 153.703 234.167 158.871 227.801 158.871 C 221.435 158.871 216.267 153.703 216.267 147.337 Z " fill="rgb(209,209,209)"/><path d=" M 216.267 177.935 C 216.267 171.569 221.435 166.401 227.801 166.401 C 234.167 166.401 239.336 171.569 239.336 177.935 C 239.336 184.302 234.167 189.47 227.801 189.47 C 221.435 189.47 216.267 184.302 216.267 177.935 Z " fill="rgb(209,209,209)"/><path d=" M 216.267 208.534 C 216.267 202.168 221.435 197 227.801 197 C 234.167 197 239.336 202.168 239.336 208.534 C 239.336 214.9 234.167 220.069 227.801 220.069 C 221.435 220.069 216.267 214.9 216.267 208.534 Z " fill="rgb(209,209,209)"/><path d=" M 216.267 239.133 C 216.267 232.767 221.435 227.598 227.801 227.598 C 234.167 227.598 239.336 232.767 239.336 239.133 C 239.336 245.499 234.167 250.668 227.801 250.668 C 221.435 250.668 216.267 245.499 216.267 239.133 Z " fill="rgb(209,209,209)"/><path d=" M 248.564 147.337 C 248.564 140.971 253.732 135.802 260.098 135.802 C 266.464 135.802 271.633 140.971 271.633 147.337 C 271.633 153.703 266.464 158.871 260.098 158.871 C 253.732 158.871 248.564 153.703 248.564 147.337 Z " fill="rgb(209,209,209)"/><path d=" M 280.861 147.337 C 280.861 140.971 286.029 135.802 292.395 135.802 C 298.761 135.802 303.93 140.971 303.93 147.337 C 303.93 153.703 298.761 158.871 292.395 158.871 C 286.029 158.871 280.861 153.703 280.861 147.337 Z " fill="rgb(209,209,209)"/><path d=" M 313.157 147.337 C 313.157 140.971 318.326 135.802 324.692 135.802 C 331.058 135.802 336.227 140.971 336.227 147.337 C 336.227 153.703 331.058 158.871 324.692 158.871 C 318.326 158.871 313.157 153.703 313.157 147.337 Z " fill="rgb(209,209,209)"/><path d=" M 345.454 147.337 C 345.454 140.971 350.623 135.802 356.989 135.802 C 363.355 135.802 368.524 140.971 368.524 147.337 C 368.524 153.703 363.355 158.871 356.989 158.871 C 350.623 158.871 345.454 153.703 345.454 147.337 Z " fill="rgb(209,209,209)"/><path d=" M 377.751 146.671 C 377.751 140.305 382.92 135.136 389.286 135.136 C 395.652 135.136 400.821 140.305 400.821 146.671 C 400.821 153.037 395.652 158.205 389.286 158.205 C 382.92 158.205 377.751 153.037 377.751 146.671 Z " fill="rgb(209,209,209)"/><path d=" M 248.564 177.935 C 248.564 171.569 253.732 166.401 260.098 166.401 C 266.464 166.401 271.633 171.569 271.633 177.935 C 271.633 184.302 266.464 189.47 260.098 189.47 C 253.732 189.47 248.564 184.302 248.564 177.935 Z " fill="rgb(209,209,209)"/><path d=" M 280.861 177.935 C 280.861 171.569 286.029 166.401 292.395 166.401 C 298.761 166.401 303.93 171.569 303.93 177.935 C 303.93 184.302 298.761 189.47 292.395 189.47 C 286.029 189.47 280.861 184.302 280.861 177.935 Z " fill="rgb(209,209,209)"/><path d=" M 313.157 177.935 C 313.157 171.569 318.326 166.401 324.692 166.401 C 331.058 166.401 336.227 171.569 336.227 177.935 C 336.227 184.302 331.058 189.47 324.692 189.47 C 318.326 189.47 313.157 184.302 313.157 177.935 Z " fill="rgb(209,209,209)"/><path d=" M 345.454 177.935 C 345.454 171.569 350.623 166.401 356.989 166.401 C 363.355 166.401 368.524 171.569 368.524 177.935 C 368.524 184.302 363.355 189.47 356.989 189.47 C 350.623 189.47 345.454 184.302 345.454 177.935 Z " fill="rgb(209,209,209)"/><path d=" M 377.751 177.935 C 377.751 171.569 382.92 166.401 389.286 166.401 C 395.652 166.401 400.821 171.569 400.821 177.935 C 400.821 184.302 395.652 189.47 389.286 189.47 C 382.92 189.47 377.751 184.302 377.751 177.935 Z " fill="rgb(209,209,209)"/><path d=" M 248.564 208.534 C 248.564 202.168 253.732 197 260.098 197 C 266.464 197 271.633 202.168 271.633 208.534 C 271.633 214.9 266.464 220.069 260.098 220.069 C 253.732 220.069 248.564 214.9 248.564 208.534 Z " fill="rgb(209,209,209)"/><path d=" M 280.861 208.534 C 280.861 202.168 286.029 197 292.395 197 C 298.761 197 303.93 202.168 303.93 208.534 C 303.93 214.9 298.761 220.069 292.395 220.069 C 286.029 220.069 280.861 214.9 280.861 208.534 Z " fill="rgb(209,209,209)"/><path d=" M 313.157 208.534 C 313.157 202.168 318.326 197 324.692 197 C 331.058 197 336.227 202.168 336.227 208.534 C 336.227 214.9 331.058 220.069 324.692 220.069 C 318.326 220.069 313.157 214.9 313.157 208.534 Z " fill="rgb(209,209,209)"/><path d=" M 345.454 208.534 C 345.454 202.168 350.623 197 356.989 197 C 363.355 197 368.524 202.168 368.524 208.534 C 368.524 214.9 363.355 220.069 356.989 220.069 C 350.623 220.069 345.454 214.9 345.454 208.534 Z " fill="rgb(209,209,209)"/><path d=" M 377.751 208.534 C 377.751 202.168 382.92 197 389.286 197 C 395.652 197 400.821 202.168 400.821 208.534 C 400.821 214.9 395.652 220.069 389.286 220.069 C 382.92 220.069 377.751 214.9 377.751 208.534 Z " fill="rgb(209,209,209)"/><path d=" M 248.564 239.133 C 248.564 232.767 253.732 227.598 260.098 227.598 C 266.464 227.598 271.633 232.767 271.633 239.133 C 271.633 245.499 266.464 250.668 260.098 250.668 C 253.732 250.668 248.564 245.499 248.564 239.133 Z " fill="rgb(209,209,209)"/><path d=" M 280.861 239.133 C 280.861 232.767 286.029 227.598 292.395 227.598 C 298.761 227.598 303.93 232.767 303.93 239.133 C 303.93 245.499 298.761 250.668 292.395 250.668 C 286.029 250.668 280.861 245.499 280.861 239.133 Z " fill="rgb(209,209,209)"/><path d=" M 313.157 239.133 C 313.157 232.767 318.326 227.598 324.692 227.598 C 331.058 227.598 336.227 232.767 336.227 239.133 C 336.227 245.499 331.058 250.668 324.692 250.668 C 318.326 250.668 313.157 245.499 313.157 239.133 Z " fill="rgb(209,209,209)"/><path d=" M 345.454 239.133 C 345.454 232.767 350.623 227.598 356.989 227.598 C 363.355 227.598 368.524 232.767 368.524 239.133 C 368.524 245.499 363.355 250.668 356.989 250.668 C 350.623 250.668 345.454 245.499 345.454 239.133 Z " fill="rgb(209,209,209)"/><path d=" M 377.751 239.133 C 377.751 232.767 382.92 227.598 389.286 227.598 C 395.652 227.598 400.821 232.767 400.821 239.133 C 400.821 245.499 395.652 250.668 389.286 250.668 C 382.92 250.668 377.751 245.499 377.751 239.133 Z " fill="rgb(209,209,209)"/></g></g></g></svg>